HIERARCHY
ROOT pelvis
{
	OFFSET 0.003123 -0.351407 0.012037
	CHANNELS 6 Xposition Yposition Zposition Zrotation Yrotation Xrotation 
	JOINT left_hip
	{
		OFFSET 0.058189 -0.092763 -0.026001
		CHANNELS 3 Zrotation Yrotation Xrotation
		JOINT left_knee
		{
			OFFSET 0.054695 -0.378753 -0.009396
			CHANNELS 3 Zrotation Yrotation Xrotation
			JOINT left_ankle
			{
				OFFSET -0.043453 -0.403059 -0.031876
				CHANNELS 3 Zrotation Yrotation Xrotation
				JOINT left_foot
				{
					OFFSET 0.047257 -0.057997 0.118216
					CHANNELS 3 Zrotation Yrotation Xrotation
					End Site
					{
						OFFSET 0.000000 0.000000 0.000000
					}
				}
			}
		}
	}
	JOINT right_hip
	{
		OFFSET -0.063267 -0.103908 -0.021250
		CHANNELS 3 Zrotation Yrotation Xrotation
		JOINT right_knee
		{
			OFFSET -0.044210 -0.362380 -0.016824
			CHANNELS 3 Zrotation Yrotation Xrotation
			JOINT right_ankle
			{
				OFFSET 0.015417 -0.410728 -0.020192
				CHANNELS 3 Zrotation Yrotation Xrotation
				JOINT right_foot
				{
					OFFSET -0.038812 -0.058328 0.119049
					CHANNELS 3 Zrotation Yrotation Xrotation
					End Site
					{
						OFFSET 0.000000 0.000000 0.000000
					}
				}
			}
		}
	}
	JOINT spine_1
	{
		OFFSET -0.002763 0.109891 -0.027618
		CHANNELS 3 Zrotation Yrotation Xrotation
		JOINT spine_2
		{
			OFFSET 0.009448 0.131853 -0.005940
			CHANNELS 3 Zrotation Yrotation Xrotation
			JOINT spine_3
			{
				OFFSET -0.011330 0.052235 0.028447
				CHANNELS 3 Zrotation Yrotation Xrotation
				JOINT neck
				{
					OFFSET -0.012164 0.165167 -0.031615
					CHANNELS 3 Zrotation Yrotation Xrotation
					JOINT head
					{
						OFFSET 0.024783 0.160452 0.020737
						CHANNELS 3 Zrotation Yrotation Xrotation
						End Site
						{
							OFFSET 0.000000 0.000000 0.000000
						}
					}
				}
				JOINT left_collar
				{
					OFFSET 0.046364 0.084944 -0.007220
					CHANNELS 3 Zrotation Yrotation Xrotation
					JOINT left_shoulder
					{
						OFFSET 0.119239 0.057728 -0.015461
						CHANNELS 3 Zrotation Yrotation Xrotation
						JOINT left_elbow
						{
							OFFSET 0.254123 -0.072151 -0.042459
							CHANNELS 3 Zrotation Yrotation Xrotation
							JOINT left_wrist
							{
								OFFSET 0.251987 0.023221 -0.002472
								CHANNELS 3 Zrotation Yrotation Xrotation
								JOINT left_index_1
								{
									OFFSET 0.101902 -0.008688 0.019351
									CHANNELS 3 Zrotation Yrotation Xrotation
									JOINT left_index_2
									{
										OFFSET 0.030149 -0.011154 0.001151
										CHANNELS 3 Zrotation Yrotation Xrotation
										JOINT left_index_3
										{
											OFFSET 0.006504 -0.021577 -0.002433
											CHANNELS 3 Zrotation Yrotation Xrotation
											End Site
											{
												OFFSET 0.000000 0.000000 0.000000
											}
										}
									}
								}
								JOINT left_middle_1
								{
									OFFSET 0.109398 -0.006328 -0.003981
									CHANNELS 3 Zrotation Yrotation Xrotation
									JOINT left_middle_2
									{
										OFFSET 0.026472 -0.015218 -0.004641
										CHANNELS 3 Zrotation Yrotation Xrotation
										JOINT left_middle_3
										{
											OFFSET 0.005022 -0.023347 -0.001911
											CHANNELS 3 Zrotation Yrotation Xrotation
											End Site
											{
												OFFSET 0.000000 0.000000 0.000000
											}
										}
									}
								}
								JOINT left_pinky_1
								{
									OFFSET 0.084047 -0.014539 -0.043750
									CHANNELS 3 Zrotation Yrotation Xrotation
									JOINT left_pinky_2
									{
										OFFSET 0.012124 -0.014448 -0.005375
										CHANNELS 3 Zrotation Yrotation Xrotation
										JOINT left_pinky_3
										{
											OFFSET 0.003798 -0.018853 0.000167
											CHANNELS 3 Zrotation Yrotation Xrotation
											End Site
											{
												OFFSET 0.000000 0.000000 0.000000
											}
										}
									}
								}
								JOINT left_ring_1
								{
									OFFSET 0.097444 -0.009268 -0.027345
									CHANNELS 3 Zrotation Yrotation Xrotation
									JOINT left_ring_2
									{
										OFFSET 0.023561 -0.016057 -0.001895
										CHANNELS 3 Zrotation Yrotation Xrotation
										JOINT left_ring_3
										{
											OFFSET 0.004257 -0.023548 0.000814
											CHANNELS 3 Zrotation Yrotation Xrotation
											End Site
											{
												OFFSET 0.000000 0.000000 0.000000
											}
										}
									}
								}
								JOINT left_thumb_1
								{
									OFFSET 0.040636 -0.017977 0.025611
									CHANNELS 3 Zrotation Yrotation Xrotation
									JOINT left_thumb_2
									{
										OFFSET 0.021637 -0.017639 0.011623
										CHANNELS 3 Zrotation Yrotation Xrotation
										JOINT left_thumb_3
										{
											OFFSET 0.024002 -0.008356 0.006548
											CHANNELS 3 Zrotation Yrotation Xrotation
											End Site
											{
												OFFSET 0.000000 0.000000 0.000000
											}
										}
									}
								}
							}
						}
					}
				}
				JOINT right_collar
				{
					OFFSET -0.047695 0.084339 -0.013400
					CHANNELS 3 Zrotation Yrotation Xrotation
					JOINT right_shoulder
					{
						OFFSET -0.102578 0.053524 -0.012669
						CHANNELS 3 Zrotation Yrotation Xrotation
						JOINT right_elbow
						{
							OFFSET -0.271150 -0.036492 -0.026467
							CHANNELS 3 Zrotation Yrotation Xrotation
							JOINT right_wrist
							{
								OFFSET -0.249267 -0.004533 -0.015325
								CHANNELS 3 Zrotation Yrotation Xrotation
								JOINT right_index_1
								{
									OFFSET -0.099881 -0.011783 0.019600
									CHANNELS 3 Zrotation Yrotation Xrotation
									JOINT right_index_2
									{
										OFFSET -0.030148 -0.011154 0.001151
										CHANNELS 3 Zrotation Yrotation Xrotation
										JOINT right_index_3
										{
											OFFSET -0.006505 -0.021577 -0.002432
											CHANNELS 3 Zrotation Yrotation Xrotation
											End Site
											{
												OFFSET 0.000000 0.000000 0.000000
											}
										}
									}
								}
								JOINT right_middle_1
								{
									OFFSET -0.107376 -0.009422 -0.003734
									CHANNELS 3 Zrotation Yrotation Xrotation
									JOINT right_middle_2
									{
										OFFSET -0.026472 -0.015218 -0.004641
										CHANNELS 3 Zrotation Yrotation Xrotation
										JOINT right_middle_3
										{
											OFFSET -0.005022 -0.023347 -0.001911
											CHANNELS 3 Zrotation Yrotation Xrotation
											End Site
											{
												OFFSET 0.000000 0.000000 0.000000
											}
										}
									}
								}
								JOINT right_pinky_1
								{
									OFFSET -0.082027 -0.017634 -0.043503
									CHANNELS 3 Zrotation Yrotation Xrotation
									JOINT right_pinky_2
									{
										OFFSET -0.012123 -0.014448 -0.005374
										CHANNELS 3 Zrotation Yrotation Xrotation
										JOINT right_pinky_3
										{
											OFFSET -0.003798 -0.018852 0.000167
											CHANNELS 3 Zrotation Yrotation Xrotation
											End Site
											{
												OFFSET 0.000000 0.000000 0.000000
											}
										}
									}
								}
								JOINT right_ring_1
								{
									OFFSET -0.095423 -0.012362 -0.027099
									CHANNELS 3 Zrotation Yrotation Xrotation
									JOINT right_ring_2
									{
										OFFSET -0.023561 -0.016057 -0.001895
										CHANNELS 3 Zrotation Yrotation Xrotation
										JOINT right_ring_3
										{
											OFFSET -0.004257 -0.023548 0.000816
											CHANNELS 3 Zrotation Yrotation Xrotation
											End Site
											{
												OFFSET 0.000000 0.000000 0.000000
											}
										}
									}
								}
								JOINT right_thumb_1
								{
									OFFSET -0.038613 -0.021074 0.025861
									CHANNELS 3 Zrotation Yrotation Xrotation
									JOINT right_thumb_2
									{
										OFFSET -0.021636 -0.017639 0.011623
										CHANNELS 3 Zrotation Yrotation Xrotation
										JOINT right_thumb_3
										{
											OFFSET -0.024004 -0.008353 0.006547
											CHANNELS 3 Zrotation Yrotation Xrotation
											End Site
											{
												OFFSET 0.000000 0.000000 0.000000
											}
										}
									}
								}
							}
						}
					}
				}
			}
		}
	}
}
MOTION
Frames: 7
Frame Time: 0.050000
1.891083 0.937394 -0.209274 -1.110256 -28.738651 -5.865357 1.657668 0.459613 2.660895 1.591032 -0.883626 8.262562 -6.139018 -16.913004 -5.646257 0.000000 0.000000 0.000000 -6.888038 1.194755 -5.750880 3.526060 0.496631 13.146679 3.350569 5.825561 0.886337 0.000000 0.000000 0.000000 2.198801 -0.067283 0.849808 -11.480282 -0.039302 -15.034728 7.042496 -5.712289 34.244984 -2.834125 0.119155 5.129882 0.000000 0.000000 0.000000 2.517114 -3.593844 1.408190 -60.199330 -15.414655 -0.177760 -32.162636 -20.562754 8.246989 -7.670917 0.634020 15.929776 -20.941417 5.473779 1.316577 1.782529 -1.668355 -4.344264 0.000000 0.000000 0.000000 -26.471983 7.172335 -2.905229 -21.062328 -2.577719 -12.840661 0.000000 0.000000 0.000000 0.125941 -14.475661 -15.635835 -86.712397 -25.739503 -19.784761 0.000000 0.000000 0.000000 -16.482460 1.093114 -1.288276 -46.278877 3.044254 3.845298 0.000000 0.000000 0.000000 -6.368741 12.967364 14.412493 -2.964983 -3.022280 0.065365 0.000000 0.000000 0.000000 -7.514196 12.487071 7.591284 55.936795 28.728185 -5.143989 46.652711 41.012957 13.794148 10.781199 -6.908649 24.862784 40.099655 -11.169683 -2.660179 19.200882 -14.080478 12.825554 0.000000 0.000000 0.000000 47.761414 -2.150767 -12.923248 29.867811 -6.493692 1.845939 0.000000 0.000000 0.000000 8.825329 15.846155 -10.410533 63.021066 71.182943 -54.853049 0.000000 0.000000 0.000000 73.472793 -1.565400 -16.497572 83.088700 15.313766 -6.095594 0.000000 0.000000 0.000000 7.571574 -20.616607 20.553607 7.129373 2.471978 1.721839 0.000000 0.000000 0.000000 
1.898621 0.937072 -0.211914 -2.017765 -28.143097 -6.372077 2.070324 0.444467 2.445125 1.867880 -1.038648 9.689454 -6.112818 -17.449261 -6.264695 0.000000 0.000000 0.000000 -6.911744 1.099406 -4.869806 4.473309 0.385938 12.900464 3.544210 5.331294 1.634381 0.000000 0.000000 0.000000 2.404999 -0.455081 3.880836 -11.116804 -0.542562 -16.244012 6.287094 -7.576073 33.834130 -3.686974 0.385938 5.225830 0.000000 0.000000 0.000000 2.826702 -3.605615 1.336725 -61.635503 -15.633878 0.499912 -29.366204 -18.570813 6.830705 -9.541461 -2.399821 13.805031 -18.000155 10.332923 2.766089 -1.286528 -0.956871 -3.388385 0.000000 0.000000 0.000000 -23.723812 1.206869 -4.040888 -28.482192 4.102513 0.664801 0.000000 0.000000 0.000000 -3.917238 -6.684132 -8.317395 -96.642902 -24.347778 -16.586767 0.000000 0.000000 0.000000 -13.909115 6.402229 1.863696 -42.282744 -5.297581 -9.759007 0.000000 0.000000 0.000000 -4.993165 15.810156 16.731998 -0.985685 -14.803251 -4.095732 0.000000 0.000000 0.000000 -7.790486 12.496777 7.714059 55.452332 28.670287 -5.708224 46.929450 41.098587 13.782539 11.611931 -7.917654 24.565910 37.394071 -9.983061 -2.150509 17.181413 -14.202452 13.946797 0.000000 0.000000 0.000000 45.414752 -3.581905 -11.999762 30.937882 -5.201072 -1.210119 0.000000 0.000000 0.000000 5.290321 14.635268 -8.803975 34.160810 76.371526 -84.047626 0.000000 0.000000 0.000000 69.648362 -3.459359 -16.125253 86.328085 13.784957 -5.691260 0.000000 0.000000 0.000000 5.618405 -20.931608 21.000643 8.537580 3.549618 1.933641 0.000000 0.000000 0.000000 
1.898621 0.936911 -0.214554 -2.082865 -32.464915 -6.348038 2.321399 0.635842 3.515477 1.040990 -0.706549 8.504855 -4.856696 -13.859722 -6.230641 0.000000 0.000000 0.000000 -5.345190 1.133127 -6.009162 2.145243 0.687179 13.345182 5.278833 8.787310 1.644766 0.000000 0.000000 0.000000 1.290354 -0.427628 3.289563 -8.035931 -1.033583 -13.365770 3.120016 -3.396858 31.729879 -2.597161 0.054634 5.175770 0.000000 0.000000 0.000000 4.149309 -2.269700 0.398981 -60.099467 -13.513178 -0.229814 -30.777594 -18.699033 7.120064 -10.720810 -1.541808 14.981346 -18.218918 0.155968 0.188011 0.292404 3.690507 9.822137 0.000000 0.000000 0.000000 -23.124493 0.228556 -4.402818 -27.589325 3.748273 -0.371507 0.000000 0.000000 0.000000 1.969412 -20.720590 -25.159302 -96.872972 -22.791718 -12.195466 0.000000 0.000000 0.000000 -13.631654 -5.131786 -4.109190 -41.026486 0.498864 -0.119925 0.000000 0.000000 0.000000 -5.271377 7.611226 9.284394 -4.224183 1.164801 1.585124 0.000000 0.000000 0.000000 -6.112974 13.418762 7.763301 55.740073 29.122879 -4.927236 45.449798 40.766071 13.255538 12.530558 -7.921267 24.006603 39.134290 -9.442829 -2.564461 16.995931 -12.108869 11.398867 0.000000 0.000000 0.000000 43.748833 -6.726610 -10.317438 32.830208 -3.916753 -5.483166 0.000000 0.000000 0.000000 6.430982 16.483554 -10.268595 58.341788 72.330813 -61.120842 0.000000 0.000000 0.000000 70.571563 -1.748350 -15.883522 82.879409 14.860592 -6.858763 0.000000 0.000000 0.000000 5.339237 -19.789795 20.158114 8.937557 2.986228 2.201832 0.000000 0.000000 0.000000 
1.906158 0.936749 -0.214554 -3.498605 -33.550408 -5.918344 2.902236 0.690496 3.691246 1.402227 -0.768143 8.645469 -4.354585 -12.895669 -6.882496 0.000000 0.000000 0.000000 -4.812524 1.136482 -6.220214 2.851600 0.669139 13.533552 6.211854 9.298072 2.703841 0.000000 0.000000 0.000000 3.004748 -0.580783 4.530882 -7.802960 -1.651436 -14.868276 1.952993 -3.307712 32.664917 -3.242644 0.253466 4.983524 0.000000 0.000000 0.000000 3.987456 -4.137854 1.311328 -60.419545 -13.879325 0.126423 -29.163645 -18.388476 6.645888 -9.958707 -1.005514 12.316691 -20.976447 4.627157 1.331565 5.200837 -1.982791 -4.658435 0.000000 0.000000 0.000000 -25.886282 5.903585 -2.784517 -16.026985 -2.771848 -12.106579 0.000000 0.000000 0.000000 -1.149153 -14.408869 -18.126630 -83.069533 -26.143507 -21.452730 0.000000 0.000000 0.000000 -15.563788 -1.236192 -2.134350 -45.954296 1.732833 3.075401 0.000000 0.000000 0.000000 -7.087770 12.020985 13.799116 -2.736508 -1.916935 0.264790 0.000000 0.000000 0.000000 -7.381304 12.324122 7.559257 56.386970 29.818070 -5.441410 45.489852 38.983968 12.483927 12.649172 -6.669270 24.077606 35.584522 -14.766565 -1.026666 16.842827 -6.776128 3.542513 0.000000 0.000000 0.000000 43.954817 -9.121340 -10.274070 29.394498 -2.373203 -6.917832 0.000000 0.000000 0.000000 2.396745 19.262662 -10.990987 41.435129 75.666051 -76.060475 0.000000 0.000000 0.000000 64.873607 1.946196 -13.825692 84.174267 14.748281 -7.793974 0.000000 0.000000 0.000000 5.862078 -20.254262 20.361659 3.179575 -5.525802 2.501709 0.000000 0.000000 0.000000 
1.906158 0.936588 -0.217194 -2.933215 -34.034103 -4.847031 2.434803 0.427817 1.889128 1.233838 -0.734350 8.968023 -4.184698 -12.148691 -6.481554 0.000000 0.000000 0.000000 -5.639833 1.381853 -7.828338 3.524270 0.592077 13.198493 6.414416 9.297968 3.067131 0.000000 0.000000 0.000000 -0.137417 -0.238520 1.621567 -7.175129 -1.214028 -12.748896 2.591620 -7.342250 33.163029 -4.072723 0.543831 4.808928 0.000000 0.000000 0.000000 2.964218 -2.186335 0.560170 -60.303617 -13.789883 0.911726 -27.655303 -16.341111 5.564515 -12.457922 -4.133619 12.089613 -18.843460 9.433825 2.553479 3.832070 -2.614034 -7.222426 0.000000 0.000000 0.000000 -21.666748 -1.051988 -4.377797 -22.355051 2.902269 0.529780 0.000000 0.000000 0.000000 -4.206077 -10.989416 -14.683947 -88.154193 -22.477499 -17.228969 0.000000 0.000000 0.000000 -13.038533 2.756950 0.304135 -39.055874 -7.631142 -13.267865 0.000000 0.000000 0.000000 -3.921360 7.703597 8.865897 -7.276611 0.099533 2.057263 0.000000 0.000000 0.000000 -8.140925 12.936456 8.165196 55.436732 31.362576 -6.280930 46.038461 38.812264 12.284283 12.797699 -7.254298 25.066049 35.253124 -11.288548 -1.636084 14.040180 -6.413738 4.090096 0.000000 0.000000 0.000000 42.149056 -4.008285 -10.866814 42.405848 -11.619120 3.720958 0.000000 0.000000 0.000000 1.895020 19.745150 -11.399119 24.491682 74.101561 -90.885115 0.000000 0.000000 0.000000 62.306330 2.924961 -13.961547 83.064540 15.225363 -9.268263 0.000000 0.000000 0.000000 5.499279 -19.144859 19.352725 4.318466 -5.233767 2.739523 0.000000 0.000000 0.000000 
1.906158 0.936427 -0.219833 -3.069119 -38.497033 -4.753568 2.674541 0.635128 3.026021 0.422331 -0.398565 7.671362 -2.959354 -8.449513 -6.219468 0.000000 0.000000 0.000000 -4.195577 1.424123 -8.534063 1.623190 0.764836 12.924103 8.508621 12.809583 3.625638 0.000000 0.000000 0.000000 -1.584966 -0.189332 1.234727 -7.482753 -1.089098 -12.222440 5.108325 -5.190916 33.245857 -3.465551 0.377965 5.013406 0.000000 0.000000 0.000000 2.576300 -3.398442 1.275658 -59.920995 -14.640074 1.200251 -27.393401 -15.719758 5.251972 -13.125485 -3.114272 12.756410 -19.385528 2.745406 0.964887 1.265389 1.918085 5.872694 0.000000 0.000000 0.000000 -21.470631 1.611427 -3.356869 -25.326156 2.957253 -0.419394 0.000000 0.000000 0.000000 1.453340 -18.602721 -24.665872 -103.334140 -16.727221 -8.551476 0.000000 0.000000 0.000000 -12.460638 -5.051131 -4.023793 -42.697711 -0.262964 -0.071005 0.000000 0.000000 0.000000 -3.027872 10.814635 11.597777 -4.262238 -3.787832 0.200880 0.000000 0.000000 0.000000 -8.191181 11.818572 7.742260 56.113475 30.360758 -7.077847 45.322693 39.525955 12.463701 14.969455 -7.795699 28.090519 36.778263 -9.697395 -2.731905 13.804813 -5.900124 3.069917 0.000000 0.000000 0.000000 46.644950 -5.245698 -13.089480 37.789058 -8.893444 1.745289 0.000000 0.000000 0.000000 10.831769 18.827919 -12.437217 90.215502 51.248681 -27.378584 0.000000 0.000000 0.000000 69.194111 -0.038589 -17.897678 78.283008 15.704624 -9.098568 0.000000 0.000000 0.000000 7.037469 -17.358171 17.662972 1.613816 -4.596204 1.759645 0.000000 0.000000 0.000000 
1.913696 0.935944 -0.219833 -4.385654 -36.373510 -4.304185 3.203650 0.523124 2.091356 1.207112 -0.668198 9.004347 -3.363974 -10.124518 -7.072536 0.000000 0.000000 0.000000 -4.455080 1.276026 -7.345598 3.256064 0.519636 11.533359 8.133880 10.950717 4.363885 0.000000 0.000000 0.000000 0.879826 -0.545528 4.105135 -7.743337 -1.436425 -13.753739 2.558186 -7.805603 32.556218 -4.499350 0.711115 3.505636 0.000000 0.000000 0.000000 3.284914 -5.613559 2.292992 -59.234537 -13.796815 1.354362 -28.210506 -16.053669 5.518485 -10.814142 -4.390899 11.211888 -18.960755 9.241787 2.536096 3.290090 -3.515672 -10.633900 0.000000 0.000000 0.000000 -22.636760 -1.713017 -4.669724 -22.982877 1.341701 -2.493015 0.000000 0.000000 0.000000 -6.113633 -10.199128 -14.658568 -91.336890 -21.930044 -15.618541 0.000000 0.000000 0.000000 -15.290572 1.832796 -0.391323 -39.565842 -9.860025 -16.055363 0.000000 0.000000 0.000000 -2.202614 8.954295 9.310732 -8.586952 -2.666689 1.699146 0.000000 0.000000 0.000000 -7.387942 10.049262 6.868476 56.465447 29.178694 -7.764685 48.994734 38.067835 12.734238 8.230123 -7.320468 29.697098 45.921347 -15.642165 -4.981939 10.508500 -1.405529 -1.994954 0.000000 0.000000 0.000000 55.267164 -4.105544 -16.802478 29.057862 -10.514851 11.246848 0.000000 0.000000 0.000000 19.349025 15.882194 -12.838645 79.412097 66.897455 -33.582089 0.000000 0.000000 0.000000 80.251412 -4.688530 -21.877891 71.525897 9.433182 0.592813 0.000000 0.000000 0.000000 13.640348 -19.403842 17.956164 0.783352 -7.710165 2.459981 0.000000 0.000000 0.000000 
